<?xml version="1.0" encoding="UTF-8" standalone="no"?>

<svg
   version="1.1"
   id="svg2"
   width="1004.2267"
   height="256.12"
   viewBox="0 0 1004.2267 256.12"
   class="w-6 h-6"
   xmlns:inkscape="http://www.inkscape.org/namespaces/inkscape"
   xmlns:sodipodi="http://sodipodi.sourceforge.net/DTD/sodipodi-0.dtd"
   xmlns="http://www.w3.org/2000/svg"
   xmlns:svg="http://www.w3.org/2000/svg">
  <defs
     id="defs6" />
  <sodipodi:namedview
     id="namedview4"
     pagecolor="#ffffff"
     bordercolor="#000000"
     borderopacity="0.25"
     inkscape:showpageshadow="2"
     inkscape:pageopacity="0.0"
     inkscape:pagecheckerboard="0"
     inkscape:deskcolor="#d1d1d1" />
  <g
     id="g8"
     inkscape:groupmode="layer"
     inkscape:label="ink_ext_XXXXXX"
     transform="matrix(1.3333333,0,0,-1.3333333,0,256.12)">
    <g
       id="g10"
       transform="scale(0.1)">
      <path
         d="m 551.59,1629.96 c 10.078,47.87 30.644,89.94 69.281,121.29 10.473,8.5 25.227,17.44 45.617,18.45 30.891,1.54 62.403,-17.69 75.215,-45.28 5.844,-12.58 8.586,-22.85 5.793,-42.56 -8.469,-59.68 -37.851,-103.98 -37.851,-103.98 -36.368,-53.59 -92.559,-139.16 -166.551,-246.25 -1.086,29.66 -2.278,71.17 -2.641,120.87 -0.859,117.03 5,148.32 11.137,177.46 z m -14.457,-316.21 c 122.785,65.55 202.758,137.17 249.992,186.11 41.813,43.32 65.906,80.82 84.723,128.19 41.465,104.35 3.781,207.64 -94.453,262.4 -74.704,41.62 -147.895,40.9 -218.368,-4.63 -38.043,-24.59 -67.964,-60.18 -87.472,-101.05 -41.996,-88.02 -33.063,-161.07 -22.332,-231.37 8.332,-54.6 29.109,-142.38 87.91,-239.65"
         style="fill:#f4a017;fill-opacity:1;fill-rule:nonzero;stroke:none"
         id="path12" />
      <path
         d="m 133.07,1556.02 c 25.082,17.41 51.664,20.7 79.653,7.77 71.675,-33.13 120.535,-82.52 120.535,-82.52 43.394,-44.65 90.109,-95.82 138.488,-153.87 -62.09,16.39 -113.137,33.85 -150.894,48.01 -50.118,18.79 -91.914,36.73 -133.914,68.75 -29.29,22.33 -51.579,49.77 -62.555,85.74 -3.535,11.59 -0.668,19.63 8.687,26.12 z m 21.434,-211.63 c 74.25,-33.3 139.144,-37.53 211.851,-40.15 57.227,-2.05 104.204,1.85 135.215,5.55 -9.195,22.28 -22.902,54.46 -40.757,92.72 -37.676,80.71 -56.157,121.34 -86.583,160.06 -35.613,45.32 -77.457,83.81 -129.437,109.18 -76.039,37.11 -168.3125,14.39 -219.2539,-53.01 -23.42191,-30.99 -31.11723,-66.48 -21.49222,-104.35 20.90232,-82.3 74.73442,-136.04 150.45712,-170"
         style="fill:#ed1b33;fill-opacity:1;fill-rule:nonzero;stroke:none"
         id="path14" />
      <path
         d="m 582.934,1310.35 c 7.566,-3.36 14.855,-7.72 22.742,-9.9 36.601,-10.17 73.453,-8.03 110.211,-0.7 54.941,10.96 102.371,37.93 146.676,70.71 126.257,93.4 133.894,113.13 190.007,142.67 47.84,25.19 122.74,48.8 237.13,33.92 -6.94,32.27 -21.38,53.34 -30.18,64.21 -43.16,53.31 -109.26,57.24 -121.89,57.87 -63.06,3.12 -113.43,-24.41 -157.048,-67.09 -98.289,-96.2 -149.394,-148.25 -171.586,-169.03 -43.668,-40.9 -113.562,-90.65 -226.062,-122.66"
         style="fill:#3a6fc0;fill-opacity:1;fill-rule:nonzero;stroke:none"
         id="path16" />
      <path
         d="M 777.59,466.102 C 759.984,442.859 737.996,431.25 711.598,431.25 H 360.207 c -15.488,0 -28.047,12.07 -28.047,26.93 v 194.031 h 379.438 c 26.398,0 48.386,-11.621 65.992,-34.84 16.5,-21.133 24.746,-46.199 24.746,-75.242 0,-29.578 -8.246,-54.918 -24.746,-76.027 z M 332.16,1023.65 c 0,14.87 12.559,26.93 28.047,26.93 h 320.051 c 20.34,0 39.035,-7.92 56.086,-23.76 20.344,-19.01 30.519,-44.355 30.519,-76.035 0,-31.164 -10.175,-56.226 -30.519,-75.234 C 719.293,859.172 700.598,851 680.258,851 H 332.16 Z M 954.934,777.352 c 46.196,50.136 69.286,107.957 69.286,173.433 0,77.615 -25.025,144.395 -75.056,200.365 -58.297,65.47 -138.863,98.21 -241.687,98.21 H 571.184 v 0.05 h -14.657 c -81.738,0 -163.484,0 -245.226,0 -3.473,0 -6.942,-0.01 -10.418,-0.01 v 0.04 H 40.2891 c -22.25,0 -40.28519375,-17.32 -40.28519375,-38.68 V 889.68 C 0.00390625,868.32 18.0391,851 40.2891,851 v 0 c 22.2539,0 40.289,-17.32 40.289,-38.68 V 419.379 c 0,-0.008 0,-0.008 0,-0.02 v -89.218 c 0,-53.93 43.7309,-97.661 97.6719,-97.661 h 97.82 104.196 304.211 66.718 207.254 c 55.921,0 101.241,43.512 101.241,97.2 v 212.449 c 0,101.371 -34.92,179.781 -104.756,235.223"
         style="fill:#191d21;fill-opacity:1;fill-rule:nonzero;stroke:none"
         id="path18" />
      <path
         d="m 1647.9,462.93 c -33.79,-38.008 -81.32,-57.02 -142.55,-57.02 -61.25,0 -108.5,19.012 -141.76,57.02 -32.22,36.441 -48.31,85.8 -48.31,148.101 0,62.289 16.09,111.668 48.31,148.098 33.26,38.012 80.51,57.019 141.76,57.019 61.23,0 108.76,-19.007 142.55,-57.019 32.2,-36.43 48.31,-85.809 48.31,-148.098 0,-62.301 -16.11,-111.66 -48.31,-148.101 z m -142.55,543.3 c -139.39,0 -246.05,-38.554 -319.96,-115.628 -67.58,-70.231 -101.36,-163.422 -101.36,-279.571 0,-116.16 33.78,-209.359 101.36,-279.562 73.91,-77.098 180.57,-115.629 319.96,-115.629 139.39,0 246.03,38.531 319.96,115.629 67.57,70.203 101.37,163.402 101.37,279.562 0,116.149 -33.8,209.34 -101.37,279.571 -73.93,77.074 -180.57,115.628 -319.96,115.628"
         style="fill:#191d21;fill-opacity:1;fill-rule:nonzero;stroke:none"
         id="path20" />
      <path
         d="m 2628.36,923.863 c -49.64,45.934 -118.79,72.856 -207.49,80.777 -71.28,6.85 -135.7,2.63 -193.24,-12.671 -49.11,-13.211 -97.69,-35.383 -145.72,-66.524 -25.88,-16.906 -48.06,-25.343 -66.53,-25.343 h -22.97 c -12.24,0 -22.17,-9.93 -22.17,-22.18 V 286.32 c 0,-14.789 5.27,-27.461 15.84,-38 10.55,-10.57 23.49,-15.84 38.81,-15.84 h 118 c 15.3,0 28.24,5.27 38.8,15.84 10.56,10.539 15.84,23.211 15.84,38 v 404.7 c 0,40.64 15.84,72.32 47.52,95.039 28.51,20.062 65.46,30.089 110.88,30.089 41.7,0 74.17,-11.878 97.41,-35.636 18.47,-20.071 27.72,-43.301 27.72,-69.692 V 401.961 c 0,-50.18 16.89,-92.152 50.68,-125.93 33.78,-33.789 75.76,-50.679 125.92,-50.679 h 14.26 c 20.12,0 36.43,16.296 36.43,36.418 v 454.589 c 0,88.172 -26.67,157.34 -79.99,207.504"
         style="fill:#191d21;fill-opacity:1;fill-rule:nonzero;stroke:none"
         id="path22" />
      <path
         d="m 3426.95,923.863 c -49.63,45.934 -118.79,72.856 -207.49,80.777 -71.28,6.85 -135.7,2.63 -193.24,-12.671 -49.11,-13.211 -97.69,-35.383 -145.72,-66.524 -25.88,-16.906 -48.06,-25.343 -66.53,-25.343 H 2791 c -12.24,0 -22.17,-9.93 -22.17,-22.18 V 286.32 c 0,-14.789 5.27,-27.461 15.84,-38 10.55,-10.57 23.49,-15.84 38.8,-15.84 h 118.01 c 15.3,0 28.24,5.27 38.8,15.84 10.56,10.539 15.85,23.211 15.85,38 v 404.7 c 0,40.64 15.83,72.32 47.51,95.039 28.51,20.062 65.46,30.089 110.87,30.089 41.71,0 74.18,-11.878 97.42,-35.636 18.47,-20.071 27.72,-43.301 27.72,-69.692 V 401.961 c 0,-50.18 16.89,-92.152 50.68,-125.93 33.78,-33.789 75.76,-50.679 125.93,-50.679 h 14.25 c 20.12,0 36.43,16.296 36.43,36.418 v 454.589 c 0,88.172 -26.67,157.34 -79.99,207.504"
         style="fill:#191d21;fill-opacity:1;fill-rule:nonzero;stroke:none"
         id="path24" />
      <path
         d="m 4652.37,923.863 c -49.64,45.934 -118.79,72.856 -207.49,80.777 -45.94,4.75 -91.87,2.38 -137.81,-7.132 -46.99,-10.031 -92.4,-31.672 -136.21,-64.934 -49.1,40.645 -114.84,64.668 -197.21,72.066 -81.31,7.92 -157.34,-4.23 -228.08,-36.433 -15.32,-6.867 -39.87,-21.121 -73.65,-42.762 -25.35,-16.906 -47.52,-25.343 -66.53,-25.343 h -20.59 c -12.25,0 -22.18,-9.93 -22.18,-22.18 V 286.32 c 0,-14.789 5.28,-27.461 15.84,-38 10.56,-10.57 23.49,-15.84 38.81,-15.84 h 118.01 c 15.3,0 28.23,5.27 38.8,15.84 10.55,10.539 15.84,23.211 15.84,38 v 404.7 c 0,83.421 44.35,125.128 133.05,125.128 73.91,0 110.88,-35.117 110.88,-105.328 v -424.5 c 0,-14.789 5.27,-27.461 15.84,-38 11.08,-10.57 24.01,-15.84 38.8,-15.84 h 118 c 15.31,0 28.24,5.27 38.81,15.84 10.55,10.539 15.84,23.211 15.84,38 v 404.7 c 0,83.421 44.35,125.128 133.05,125.128 73.91,0 110.88,-35.117 110.88,-105.328 V 401.961 c 0,-50.18 16.88,-92.152 50.68,-125.93 33.78,-33.789 75.76,-50.679 125.92,-50.679 h 15.05 c 23.76,0 35.64,12.128 35.64,36.418 v 454.589 c 0,88.172 -26.67,157.34 -79.99,207.504"
         style="fill:#191d21;fill-opacity:1;fill-rule:nonzero;stroke:none"
         id="path26" />
      <path
         d="m 5281.11,504.121 c -7.41,-13.73 -15.85,-26.41 -25.35,-38.019 -29.04,-33.262 -67.32,-53.063 -114.84,-59.403 -67.58,-8.449 -116.16,4.481 -145.72,38.813 -16.9,20.59 -19.54,41.699 -7.92,63.359 12.14,22.699 33.52,34.051 64.15,34.051 h 229.68 z m 106.11,462.504 c -23.23,10.551 -49.1,19.262 -77.61,26.133 -55.97,13.192 -115.1,18.732 -177.4,16.632 -90.28,-2.65 -164.47,-17.691 -222.54,-45.14 -51.75,-26.402 -77.61,-62.309 -77.61,-107.711 v -91.078 c 0,-19 10.29,-30.891 30.88,-35.629 21.12,-4.23 38.81,2.898 53.07,21.379 31.67,41.699 88.16,65.988 169.48,72.859 86.58,6.86 146.77,-7.922 180.56,-44.351 10.03,-10.571 15.06,-22.699 15.06,-36.418 v -15.84 c 0,-21 -17.03,-38.02 -38.02,-38.02 H 5004.7 c -67.58,0 -122.49,-19.281 -164.72,-57.812 -40.67,-38.02 -63.63,-86.609 -68.9,-145.731 -4.75,-52.269 6.85,-100.066 34.84,-143.347 26.4,-40.66 63.62,-71.27 111.67,-91.86 54.38,-23.761 115.36,-35.64 182.94,-35.64 59.66,0 113.78,10.301 162.36,30.879 24.28,10.019 47.77,23.492 70.48,40.39 35.37,-35.91 78.4,-53.84 129.09,-53.84 h 9.51 c 20.12,0 36.43,16.301 36.43,36.418 v 502.114 c 0,93.449 -40.39,158.652 -121.18,195.613"
         style="fill:#191d21;fill-opacity:1;fill-rule:nonzero;stroke:none"
         id="path28" />
      <path
         d="m 6042.68,989.59 h -192.44 c -41.18,0 -74.72,-3.438 -100.58,-10.293 -26.41,-7.918 -56.76,-24.82 -91.08,-50.688 -24.29,-19.007 -41.72,-28.507 -52.27,-28.507 h -15.05 c -12.24,0 -22.17,-9.93 -22.17,-22.18 V 286.32 c 0,-14.789 5.27,-27.461 15.84,-38 10.55,-10.57 23.49,-15.84 38.8,-15.84 h 118.01 c 15.3,0 28.24,5.27 38.8,15.84 10.56,10.539 15.84,23.211 15.84,38 v 464.09 c 0,14.262 5.01,26.66 15.05,37.231 10.55,10.031 22.97,15.05 37.22,15.05 h 80 c 41.18,0 75.49,13.719 102.95,41.18 27.45,27.449 41.18,61.77 41.18,102.949 v 13.469 c 0,19.531 -10.04,29.301 -30.1,29.301"
         style="fill:#191d21;fill-opacity:1;fill-rule:nonzero;stroke:none"
         id="path30" />
      <path
         d="m 6680.67,607.07 c -27.46,29.571 -64.69,54.641 -111.67,75.239 -39.6,17.421 -88.45,32.203 -146.52,44.339 -34.32,7.403 -62.56,15.582 -84.74,24.563 -17.42,6.859 -28.25,16.098 -32.46,27.719 -4.24,12.672 2.1,24.011 19,34.05 18.47,10.032 43.56,15.051 75.24,15.051 104,-0.543 180.3,-32.742 228.88,-96.621 14.25,-18.488 32.19,-25.609 53.85,-21.39 20.05,4.761 30.09,16.371 30.09,34.859 v 118.793 c 0,36.949 -10.57,62.816 -31.67,77.613 -21.13,15.84 -45.42,28.512 -72.87,38.012 -63.35,23.223 -137.28,32.993 -221.75,29.303 -77.61,-3.7 -141.5,-18.487 -191.65,-44.35 -70.23,-36.434 -110.09,-91.609 -119.59,-165.52 -10.04,-75.511 17.15,-139.39 81.57,-191.66 32.21,-25.34 72.59,-46.718 121.17,-64.148 30.1,-10.563 63.62,-19.801 100.58,-27.723 53.32,-11.078 88.17,-21.91 104.54,-32.469 17.95,-11.621 25.6,-25.089 22.97,-40.378 -2.12,-14.813 -12.94,-26.422 -32.47,-34.864 -47,-21.129 -109.29,-21.367 -186.91,-0.789 -26.92,6.86 -50.95,15.84 -72.06,26.93 -16.38,8.961 -30.1,18.73 -41.18,29.301 -17.96,17.429 -35.64,24.281 -53.07,20.601 -20.59,-4.242 -30.89,-15.84 -30.89,-34.851 v -26.93 c 0,-53.34 22.44,-98.738 67.32,-136.219 62.83,-51.742 148.36,-76.019 256.6,-72.859 72.33,2.648 133.31,16.098 182.95,40.387 59.65,29.023 100.57,72.07 122.75,129.089 19.53,51.731 20.32,104.012 2.38,156.813 -8.99,26.398 -22.45,49.098 -40.39,68.109"
         style="fill:#191d21;fill-opacity:1;fill-rule:nonzero;stroke:none"
         id="path32" />
      <path
         d="m 7008.22,725.07 c 1.59,9.5 5.01,18.739 10.3,27.731 15.3,25.859 39.32,45.129 72.06,57.808 62.3,24.801 119.85,21.11 172.65,-11.089 35.37,-21.649 48.84,-47.508 40.4,-77.61 -5.29,-21.648 -24.82,-32.469 -58.61,-32.469 h -206.71 c -25.33,0 -35.37,11.868 -30.09,35.629 z M 7463.6,483.531 c -17.42,3.68 -35.12,-3.172 -53.06,-20.601 -22.71,-21.66 -53.59,-38.289 -92.66,-49.891 -49.64,-14.258 -97.68,-18.488 -144.14,-12.668 -53.33,6.848 -95.57,25.34 -126.71,55.438 -29.58,27.972 -47,62.031 -52.27,102.16 8.97,-10.039 21.11,-15.047 36.43,-15.047 h 310.45 c 58.07,0 104.8,19.008 140.18,57.027 32.72,35.371 49.35,79.199 49.89,131.461 0.52,64.942 -23.76,122.219 -72.86,171.86 -71.28,72.859 -171.86,107.71 -301.74,104.54 -92.4,-2.65 -171.85,-25.88 -238.38,-69.701 -35.38,-22.711 -64.94,-50.679 -88.7,-83.949 -45.41,-64.41 -68.11,-144.14 -68.11,-239.172 0,-95.027 23.22,-176.09 69.69,-243.129 50.16,-72.339 122.76,-119.589 217.79,-141.769 39.6,-8.969 78.93,-13.981 118.01,-15.039 77.61,-2.121 144.93,10.031 201.95,36.429 82.88,38.52 124.34,95.282 124.34,170.27 v 26.93 c 0,19.011 -10.04,30.609 -30.1,34.851"
         style="fill:#191d21;fill-opacity:1;fill-rule:nonzero;stroke:none"
         id="path34" />
      <path
         d="m 6431.32,15.5 65.06,90.781 c 17.63,24.59 0.06,58.801 -30.19,58.801 H 6363.5 c -13.61,0 -26.14,-7.453 -32.64,-19.41 l -49.32,-90.7814 c -13.46,-24.7617 4.46,-54.9023188 32.64,-54.9023188 h 86.94 c 11.98,0 23.22,5.7929688 30.2,15.5117188"
         style="fill:#6fc72d;fill-opacity:1;fill-rule:nonzero;stroke:none"
         id="path36" />
    </g>
  </g>
</svg>
