<?xml version="1.0" encoding="utf-8"?>
<!-- Generator: Adobe Illustrator 25.2.1, SVG Export Plug-In . SVG Version: 6.00 Build 0)  -->
<svg version="1.1" id="katman_1" xmlns="http://www.w3.org/2000/svg" xmlns:xlink="http://www.w3.org/1999/xlink" x="0px" y="0px"
	 viewBox="0 0 1920 1080" style="enable-background:new 0 0 1920 1080;" xml:space="preserve">
<style type="text/css">
	.st0{fill:#F5AA00;}
	.st1{fill:#EB0024;}
	.st2{fill:#0072CF;}
	.st3{fill:#202428;}
	.st4{fill:#81BD00;}
</style>
<g>
	<g>
		<g>
			<g>
				<path class="st0" d="M637.13,504.67c12.28-6.55,20.28-13.72,25-18.61c4.18-4.33,6.59-8.08,8.47-12.82
					c4.15-10.44,0.38-20.76-9.45-26.24c-7.47-4.16-14.79-4.09-21.84,0.46c-3.8,2.46-6.8,6.02-8.75,10.11
					c-4.2,8.8-3.31,16.11-2.23,23.14C629.17,486.16,631.25,494.94,637.13,504.67z M638.57,473.05c1.01-4.79,3.06-8.99,6.93-12.13
					c1.05-0.85,2.52-1.74,4.56-1.84c3.09-0.15,6.24,1.77,7.52,4.53c0.58,1.26,0.86,2.29,0.58,4.26c-0.85,5.97-3.78,10.4-3.78,10.4
					c-3.64,5.36-9.26,13.92-16.66,24.63c-0.11-2.97-0.23-7.12-0.26-12.09C637.37,479.09,637.96,475.96,638.57,473.05z"/>
			</g>
		</g>
		<g>
			<g>
				<path class="st1" d="M598.86,501.6c7.42,3.33,13.91,3.75,21.19,4.01c5.72,0.21,10.42-0.19,13.52-0.55
					c-0.92-2.23-2.29-5.45-4.08-9.27c-3.77-8.07-5.62-12.13-8.66-16.01c-3.56-4.53-7.75-8.38-12.94-10.92
					c-7.6-3.71-16.83-1.44-21.93,5.3c-2.34,3.1-3.11,6.65-2.15,10.43C585.91,492.83,591.29,498.21,598.86,501.6z M596.72,480.44
					c2.51-1.74,5.17-2.07,7.97-0.78c7.17,3.31,12.05,8.25,12.05,8.25c4.34,4.46,9.01,9.58,13.85,15.39
					c-6.21-1.64-11.31-3.39-15.09-4.8c-5.01-1.88-9.19-3.67-13.39-6.88c-2.93-2.23-5.16-4.98-6.26-8.57
					C595.5,481.89,595.79,481.09,596.72,480.44z"/>
			</g>
		</g>
		<g>
			<path class="st2" d="M641.71,505.01c0.76,0.34,1.49,0.77,2.27,0.99c3.66,1.02,7.35,0.8,11.02,0.07
				c5.49-1.1,10.24-3.79,14.67-7.07c12.63-9.34,13.39-11.31,19-14.27c4.78-2.52,12.28-4.88,23.71-3.39
				c-0.69-3.23-2.14-5.33-3.02-6.42c-4.32-5.33-10.93-5.72-12.19-5.79c-6.31-0.31-11.34,2.44-15.7,6.71
				c-9.83,9.62-14.94,14.82-17.16,16.9C659.95,496.83,652.96,501.81,641.71,505.01z"/>
		</g>
		<path class="st3" d="M678.91,558.31c4.62-5.02,6.93-10.8,6.93-17.34c0-7.76-2.5-14.44-7.51-20.04
			c-5.83-6.55-13.89-9.82-24.17-9.82h-13.63v-0.01h-1.47c-8.17,0-16.35,0-24.52,0c-0.35,0-0.69,0-1.04,0v0h-26.06
			c-2.23,0-4.03,1.73-4.03,3.87v32.11c0,2.14,1.8,3.87,4.03,3.87l0,0c2.23,0,4.03,1.73,4.03,3.87v39.29c0,0,0,0,0,0v8.92
			c0,5.39,4.37,9.77,9.77,9.77h9.78h10.42h30.42h6.67h20.73c5.59,0,10.12-4.35,10.12-9.72v-21.25
			C689.38,571.69,685.89,563.85,678.91,558.31z M616.63,533.68c0-1.49,1.26-2.69,2.8-2.69h32c2.03,0,3.9,0.79,5.61,2.38
			c2.03,1.9,3.05,4.43,3.05,7.6c0,3.12-1.02,5.62-3.05,7.52c-1.71,1.64-3.57,2.46-5.61,2.46h-34.81V533.68z M661.17,589.43
			c-1.76,2.32-3.96,3.48-6.6,3.48h-35.14c-1.55,0-2.8-1.21-2.8-2.69v-19.4h37.94c2.64,0,4.84,1.16,6.6,3.48
			c1.65,2.11,2.47,4.62,2.47,7.52C663.65,584.79,662.82,587.32,661.17,589.43z"/>
		<path class="st3" d="M733.95,535.42c-13.94,0-24.6,3.85-32,11.56c-6.76,7.02-10.14,16.34-10.14,27.96
			c0,11.62,3.38,20.94,10.14,27.96c7.39,7.71,18.06,11.56,32,11.56c13.94,0,24.6-3.85,32-11.56c6.76-7.02,10.14-16.34,10.14-27.96
			c0-11.61-3.38-20.93-10.14-27.96C758.55,539.28,747.89,535.42,733.95,535.42z M748.2,589.75c-3.38,3.8-8.13,5.7-14.26,5.7
			c-6.13,0-10.85-1.9-14.18-5.7c-3.22-3.64-4.83-8.58-4.83-14.81c0-6.23,1.61-11.17,4.83-14.81c3.33-3.8,8.05-5.7,14.18-5.7
			c6.12,0,10.88,1.9,14.26,5.7c3.22,3.64,4.83,8.58,4.83,14.81C753.04,581.17,751.42,586.11,748.2,589.75z"/>
		<path class="st3" d="M846.25,543.66c-4.96-4.59-11.88-7.29-20.75-8.08c-7.13-0.69-13.57-0.26-19.32,1.27
			c-4.91,1.32-9.77,3.54-14.57,6.65c-2.59,1.69-4.81,2.53-6.65,2.53h-2.3c-1.22,0-2.22,0.99-2.22,2.22v59.16
			c0,1.48,0.53,2.75,1.58,3.8c1.06,1.06,2.35,1.58,3.88,1.58h11.8c1.53,0,2.82-0.53,3.88-1.58c1.06-1.05,1.58-2.32,1.58-3.8v-40.47
			c0-4.06,1.58-7.23,4.75-9.5c2.85-2.01,6.55-3.01,11.09-3.01c4.17,0,7.42,1.19,9.74,3.56c1.85,2.01,2.77,4.33,2.77,6.97v30.89
			c0,5.02,1.69,9.21,5.07,12.59c3.38,3.38,7.58,5.07,12.59,5.07h1.43c2.01,0,3.64-1.63,3.64-3.64v-45.46
			C854.25,555.59,851.58,548.67,846.25,543.66z"/>
		<path class="st3" d="M926.11,543.66c-4.96-4.59-11.88-7.29-20.75-8.08c-7.13-0.69-13.57-0.26-19.32,1.27
			c-4.91,1.32-9.77,3.54-14.57,6.65c-2.59,1.69-4.81,2.53-6.65,2.53h-2.3c-1.22,0-2.22,0.99-2.22,2.22v59.16
			c0,1.48,0.53,2.75,1.58,3.8c1.06,1.06,2.35,1.58,3.88,1.58h11.8c1.53,0,2.82-0.53,3.88-1.58c1.06-1.05,1.58-2.32,1.58-3.8v-40.47
			c0-4.06,1.58-7.23,4.75-9.5c2.85-2.01,6.55-3.01,11.09-3.01c4.17,0,7.42,1.19,9.74,3.56c1.85,2.01,2.77,4.33,2.77,6.97v30.89
			c0,5.02,1.69,9.21,5.07,12.59c3.38,3.38,7.58,5.07,12.59,5.07h1.43c2.01,0,3.64-1.63,3.64-3.64v-45.46
			C934.11,555.59,931.44,548.67,926.11,543.66z"/>
		<path class="st3" d="M1048.65,543.66c-4.96-4.59-11.88-7.29-20.75-8.08c-4.59-0.48-9.19-0.24-13.78,0.71
			c-4.7,1-9.24,3.17-13.62,6.49c-4.91-4.06-11.48-6.47-19.72-7.21c-8.13-0.79-15.73,0.42-22.81,3.64c-1.53,0.69-3.99,2.11-7.37,4.28
			c-2.53,1.69-4.75,2.53-6.65,2.53h-2.06c-1.22,0-2.22,0.99-2.22,2.22v59.16c0,1.48,0.53,2.75,1.58,3.8
			c1.06,1.06,2.35,1.58,3.88,1.58h11.8c1.53,0,2.82-0.53,3.88-1.58c1.06-1.05,1.58-2.32,1.58-3.8v-40.47
			c0-8.34,4.43-12.51,13.3-12.51c7.39,0,11.09,3.51,11.09,10.53v42.45c0,1.48,0.53,2.75,1.58,3.8c1.11,1.06,2.4,1.58,3.88,1.58h11.8
			c1.53,0,2.82-0.53,3.88-1.58c1.06-1.05,1.58-2.32,1.58-3.8v-40.47c0-8.34,4.43-12.51,13.31-12.51c7.39,0,11.09,3.51,11.09,10.53
			v30.89c0,5.02,1.69,9.21,5.07,12.59c3.38,3.38,7.58,5.07,12.59,5.07h1.5c2.38,0,3.56-1.21,3.56-3.64v-45.46
			C1056.65,555.59,1053.98,548.67,1048.65,543.66z"/>
		<path class="st3" d="M1122.14,539.38c-2.32-1.06-4.91-1.93-7.76-2.61c-5.6-1.32-11.51-1.87-17.74-1.66
			c-9.03,0.26-16.45,1.77-22.25,4.51c-5.17,2.64-7.76,6.23-7.76,10.77v9.11c0,1.9,1.03,3.09,3.09,3.56
			c2.11,0.42,3.88-0.29,5.31-2.14c3.17-4.17,8.82-6.6,16.95-7.29c8.66-0.69,14.68,0.79,18.06,4.43c1,1.06,1.51,2.27,1.51,3.64v1.58
			c0,2.1-1.7,3.8-3.8,3.8h-23.84c-6.76,0-12.25,1.93-16.47,5.78c-4.07,3.8-6.36,8.66-6.89,14.57c-0.48,5.23,0.69,10.01,3.48,14.33
			c2.64,4.07,6.36,7.13,11.17,9.19c5.44,2.38,11.54,3.56,18.29,3.56c5.97,0,11.38-1.03,16.24-3.09c2.43-1,4.78-2.35,7.05-4.04
			c3.54,3.59,7.84,5.39,12.91,5.39h0.95c2.01,0,3.64-1.63,3.64-3.64v-50.21C1134.25,549.6,1130.21,543.08,1122.14,539.38z
			 M1111.52,585.63c-0.74,1.37-1.58,2.64-2.53,3.8c-2.9,3.33-6.73,5.31-11.48,5.94c-6.76,0.85-11.62-0.45-14.57-3.88
			c-1.69-2.06-1.95-4.17-0.79-6.34c1.21-2.27,3.35-3.41,6.41-3.41h22.97V585.63z"/>
		<path class="st3" d="M1187.68,537.08h-19.24c-4.12,0-7.47,0.34-10.06,1.03c-2.64,0.79-5.68,2.48-9.11,5.07
			c-2.43,1.9-4.17,2.85-5.23,2.85h-1.5c-1.22,0-2.22,0.99-2.22,2.22v59.16c0,1.48,0.53,2.75,1.58,3.8c1.06,1.06,2.35,1.58,3.88,1.58
			h11.8c1.53,0,2.82-0.53,3.88-1.58c1.06-1.05,1.58-2.32,1.58-3.8V561c0-1.43,0.5-2.67,1.51-3.72c1.06-1,2.3-1.5,3.72-1.5h8
			c4.12,0,7.55-1.37,10.3-4.12c2.74-2.74,4.12-6.18,4.12-10.3v-1.35C1190.69,538.06,1189.69,537.08,1187.68,537.08z"/>
		<path class="st3" d="M1251.48,575.34c-2.75-2.96-6.47-5.46-11.17-7.52c-3.96-1.74-8.84-3.22-14.65-4.43
			c-3.43-0.74-6.26-1.56-8.47-2.46c-1.74-0.69-2.83-1.61-3.25-2.77c-0.42-1.27,0.21-2.4,1.9-3.41c1.85-1,4.36-1.5,7.52-1.5
			c10.4,0.05,18.03,3.27,22.89,9.66c1.43,1.85,3.22,2.56,5.39,2.14c2.01-0.48,3.01-1.64,3.01-3.48v-11.88c0-3.7-1.06-6.28-3.17-7.76
			c-2.11-1.58-4.54-2.85-7.29-3.8c-6.34-2.32-13.73-3.3-22.17-2.93c-7.76,0.37-14.15,1.85-19.17,4.43
			c-7.02,3.64-11.01,9.16-11.96,16.55c-1,7.55,1.72,13.94,8.16,19.17c3.22,2.53,7.26,4.67,12.12,6.41
			c3.01,1.06,6.36,1.98,10.06,2.77c5.33,1.11,8.82,2.19,10.45,3.25c1.79,1.16,2.56,2.51,2.3,4.04c-0.21,1.48-1.29,2.64-3.25,3.48
			c-4.7,2.11-10.93,2.14-18.69,0.08c-2.69-0.69-5.1-1.58-7.21-2.69c-1.64-0.9-3.01-1.87-4.12-2.93c-1.8-1.74-3.56-2.43-5.31-2.06
			c-2.06,0.42-3.09,1.58-3.09,3.48v2.69c0,5.33,2.24,9.87,6.73,13.62c6.28,5.17,14.84,7.6,25.66,7.29
			c7.23-0.26,13.33-1.61,18.29-4.04c5.97-2.9,10.06-7.21,12.28-12.91c1.95-5.17,2.03-10.4,0.24-15.68
			C1254.62,579.51,1253.27,577.24,1251.48,575.34z"/>
		<path class="st3" d="M1329.77,587.69c-1.74-0.37-3.51,0.32-5.31,2.06c-2.27,2.17-5.36,3.83-9.27,4.99
			c-4.96,1.43-9.77,1.85-14.41,1.27c-5.33-0.69-9.56-2.53-12.67-5.54c-2.96-2.8-4.7-6.2-5.23-10.22c0.9,1,2.11,1.5,3.64,1.5h31.05
			c5.81,0,10.48-1.9,14.02-5.7c3.27-3.54,4.94-7.92,4.99-13.15c0.05-6.49-2.38-12.22-7.29-17.19c-7.13-7.29-17.19-10.77-30.17-10.45
			c-9.24,0.26-17.19,2.59-23.84,6.97c-3.54,2.27-6.49,5.07-8.87,8.39c-4.54,6.44-6.81,14.41-6.81,23.92s2.32,17.61,6.97,24.31
			c5.02,7.23,12.28,11.96,21.78,14.18c3.96,0.9,7.89,1.4,11.8,1.5c7.76,0.21,14.49-1,20.2-3.64c8.29-3.85,12.43-9.53,12.43-17.03
			v-2.69C1332.78,589.27,1331.78,588.11,1329.77,587.69z M1284.24,563.53c0.16-0.95,0.5-1.87,1.03-2.77
			c1.53-2.59,3.93-4.51,7.21-5.78c6.23-2.48,11.98-2.11,17.27,1.11c3.54,2.17,4.88,4.75,4.04,7.76c-0.53,2.17-2.48,3.25-5.86,3.25
			h-20.67C1284.71,567.1,1283.71,565.91,1284.24,563.53z"/>
		<g>
			<path class="st4" d="M1226.55,634.49l6.51-9.08c1.76-2.46,0.01-5.88-3.02-5.88h-10.27c-1.36,0-2.61,0.74-3.26,1.94l-4.93,9.08
				c-1.35,2.48,0.45,5.49,3.26,5.49h8.69C1224.72,636.04,1225.85,635.47,1226.55,634.49z"/>
		</g>
	</g>
</g>
</svg>
