<?xml version="1.0" encoding="utf-8"?>
<!-- Generator: Adobe Illustrator 25.2.1, SVG Export Plug-In . SVG Version: 6.00 Build 0)  -->
<svg version="1.1" id="katman_1" xmlns="http://www.w3.org/2000/svg" xmlns:xlink="http://www.w3.org/1999/xlink" x="0px" y="0px"
	 viewBox="0 0 328.8 430.4" style="enable-background:new 0 0 328.8 430.4;" xml:space="preserve">
<style type="text/css">
	.st0{fill:#F5AA00;}
	.st1{fill:#EB0024;}
	.st2{fill:#0072CF;}
	.st3{fill:#202428;}
</style>
<g>
	<g>
		<g>
			<g>
				<path class="st0" d="M137,154.8c31.3-16.7,51.7-35,63.7-47.4c10.7-11,16.8-20.6,21.6-32.7c10.6-26.6,1-52.9-24.1-66.9
					c-19-10.6-37.7-10.4-55.7,1.2c-9.7,6.3-17.3,15.3-22.3,25.8c-10.7,22.4-8.4,41.1-5.7,59C116.7,107.6,122,130,137,154.8z
					 M140.6,74.2c2.6-12.2,7.8-22.9,17.7-30.9c2.7-2.2,6.4-4.4,11.6-4.7c7.9-0.4,15.9,4.5,19.2,11.5c1.5,3.2,2.2,5.8,1.5,10.9
					c-2.2,15.2-9.6,26.5-9.6,26.5c-9.3,13.7-23.6,35.5-42.5,62.8c-0.3-7.6-0.6-18.2-0.7-30.8C137.6,89.6,139.1,81.6,140.6,74.2z"/>
			</g>
		</g>
		<g>
			<g>
				<path class="st1" d="M39.4,146.9c18.9,8.5,35.5,9.6,54,10.2c14.6,0.5,26.6-0.5,34.5-1.4c-2.3-5.7-5.8-13.9-10.4-23.6
					c-9.6-20.6-14.3-30.9-22.1-40.8c-9.1-11.5-19.8-21.4-33-27.8C43,54,19.5,59.8,6.5,77c-6,7.9-7.9,17-5.5,26.6
					C6.4,124.6,20.1,138.3,39.4,146.9z M33.9,93c6.4-4.4,13.2-5.3,20.3-2C72.5,99.4,85,112,85,112c11.1,11.4,23,24.4,35.3,39.2
					c-15.8-4.2-28.8-8.6-38.5-12.2c-12.8-4.8-23.4-9.4-34.1-17.5c-7.5-5.7-13.2-12.7-16-21.8C30.8,96.7,31.6,94.7,33.9,93z"/>
			</g>
		</g>
		<g>
			<path class="st2" d="M148.6,155.6c1.9,0.9,3.8,2,5.8,2.5c9.3,2.6,18.7,2,28.1,0.2c14-2.8,26.1-9.7,37.4-18
				c32.2-23.8,34.1-28.8,48.4-36.4c12.2-6.4,31.3-12.4,60.4-8.6c-1.8-8.2-5.5-13.6-7.7-16.4c-11-13.6-27.9-14.6-31.1-14.8
				c-16.1-0.8-28.9,6.2-40,17.1c-25.1,24.5-38.1,37.8-43.7,43.1C195.1,134.8,177.3,147.5,148.6,155.6z"/>
		</g>
		<path class="st3" d="M243.5,291.5c11.8-12.8,17.7-27.5,17.7-44.2c0-19.8-6.4-36.8-19.1-51.1c-14.9-16.7-35.4-25-61.6-25h-34.7v0
			h-3.7c-20.8,0-41.7,0-62.5,0c-0.9,0-1.8,0-2.7,0l0,0H10.3C4.6,171.2,0,175.6,0,181v81.9c0,5.5,4.6,9.9,10.3,9.9l0,0
			c5.7,0,10.3,4.4,10.3,9.9v100.2l0,0v22.7c0,13.7,11.1,24.9,24.9,24.9h24.9H97h77.5h17h52.8c14.3,0,25.8-11.1,25.8-24.8v-54.2
			C270.1,325.6,261.3,305.6,243.5,291.5z M84.7,228.7c0-3.8,3.2-6.9,7.1-6.9h81.6c5.2,0,9.9,2,14.3,6.1c5.2,4.8,7.8,11.3,7.8,19.4
			c0,8-2.6,14.3-7.8,19.2c-4.4,4.2-9.1,6.3-14.3,6.3H84.7L84.7,228.7L84.7,228.7z M198.2,370.8c-4.5,5.9-10.1,8.9-16.8,8.9H91.8
			c-4,0-7.1-3.1-7.1-6.9v-49.5h96.7c6.7,0,12.3,3,16.8,8.9c4.2,5.4,6.3,11.8,6.3,19.2C204.6,359,202.4,365.5,198.2,370.8z"/>
	</g>
</g>
</svg>
